<svg width="256" height="256" viewBox="0 0 256 256" fill="none" xmlns="http://www.w3.org/2000/svg">
  <path
    d="M43 63C30 70 22 83 22 99V157C22 177 32 193 46 201V70C45 67 44 65 43 63Z"
    fill="#185A49"
  />
  <path
    d="M213 63C226 70 234 83 234 99V157C234 177 224 193 210 201V70C211 67 212 65 213 63Z"
    fill="#185A49"
  />
  <path
    d="M48 58L114 20C123 15 133 15 142 20L208 58H163L128 93L93 58H48Z"
    fill="#185A49"
  />
  <path
    d="M75 84L128 137V230L75 203V84Z"
    fill="#185A49"
  />
  <path
    d="M181 84L128 137V230L181 203V84Z"
    fill="#185A49"
  />
  <circle cx="128" cy="161" r="31" fill="#B78216" />
  <circle cx="128" cy="161" r="27" fill="#D8A63B" />
  <circle cx="128" cy="161" r="20" fill="none" stroke="#F3D77B" stroke-width="3" />
  <circle cx="128" cy="138" r="2.2" fill="#F3D77B" />
  <circle cx="145" cy="145" r="2.2" fill="#F3D77B" />
  <circle cx="151" cy="161" r="2.2" fill="#F3D77B" />
  <circle cx="145" cy="177" r="2.2" fill="#F3D77B" />
  <circle cx="128" cy="184" r="2.2" fill="#F3D77B" />
  <circle cx="111" cy="177" r="2.2" fill="#F3D77B" />
  <circle cx="105" cy="161" r="2.2" fill="#F3D77B" />
  <circle cx="111" cy="145" r="2.2" fill="#F3D77B" />
  <path
    d="M115 174V148H123L128 164L133 148H141V174H134V160L130 174H126L122 160V174H115Z"
    fill="#7E5710"
  />
</svg>
